<svg xmlns="http://www.w3.org/2000/svg" width="104" height="102" fill="none"><path fill="#A775F1" fill-rule="evenodd" d="M42 59.727V102H0V75.74c0-15.8 1.485-27.836 4.455-36.109 2.97-8.273 7.556-15.879 13.76-22.818C24.422 9.874 32.35 4.27 42 0v19.375c-5.09 2.883-8.989 6.485-11.693 10.809-2.705 4.323-4.746 8.86-6.125 13.61-1.379 4.75-2.068 10.062-2.068 15.933H42Zm62 0V102H62V75.74c0-15.8 1.485-27.836 4.454-36.109 2.97-8.273 7.53-15.879 13.682-22.818C86.288 9.874 94.242 4.27 104 0v19.375c-5.09 2.883-8.989 6.485-11.693 10.809-2.705 4.323-4.746 8.86-6.125 13.61-1.379 4.75-2.068 10.062-2.068 15.933H104Z" clip-rule="evenodd"/></svg>